<svg xmlns="http://www.w3.org/2000/svg" xmlns:xlink="http://www.w3.org/1999/xlink"><symbol id="icon-action-camera" viewBox="0 0 71 87">
<path d="M53.349 1.49C53.349 0.754 52.771 0 52.038 0H9.053C8.32 0 7.672 0.754 7.672 1.49V5.012H53.348V1.49H53.349Z" fill="#363636"/>
<path d="M54.202 81.809H44.605V71.426H37.647V73.933H18.774C18.237 72.679 17.017 71.785 15.593 71.785H3.559C1.642 71.784 0 73.387 0 75.311V78.329C0 80.253 1.642 81.809 3.559 81.809H15.594C17.105 81.809 18.386 80.913 18.863 79.483H37.648V81.809H28.13C27.597 81.809 27.12 82.246 27.12 82.781V85.953C27.12 86.488 27.598 87.001 28.13 87.001H54.202C54.735 87.001 55.132 86.488 55.132 85.953V82.78C55.132 82.245 54.735 81.809 54.202 81.809Z" fill="#363636"/>
<path d="M60.666 12.39C59.805 9.45303 57.099 7.34003 53.895 7.34003H7.148C3.25 7.34003 0 10.449 0 14.361V61.261C0 65.173 3.25 68.382 7.148 68.382H53.895C57.793 68.382 61.021 65.173 61.021 61.261V50.915C67.087 46.711 71.022 39.704 71.022 31.751C71.021 23.672 66.89 16.57 60.666 12.39ZM12.238 62.151C8.979 62.151 6.337 59.501 6.337 56.23C6.337 52.96 8.979 50.308 12.238 50.308C15.497 50.308 18.14 52.96 18.14 56.23C18.14 59.501 15.497 62.151 12.238 62.151ZM18.199 29.546C18.199 30.332 17.564 30.968 16.781 30.968H7.841C7.058 30.968 6.423 30.331 6.423 29.546V15.386C6.423 14.6 7.058 13.963 7.841 13.963H16.78C17.563 13.963 18.198 14.6 18.198 15.386V29.546H18.199ZM47.762 51.858C36.686 51.858 27.705 42.848 27.705 31.735C27.705 20.622 36.685 11.611 47.762 11.611C58.839 11.611 67.82 20.621 67.82 31.735C67.82 42.849 58.839 51.858 47.762 51.858Z" fill="#363636"/>
<path d="M47.762 43.964C54.4932 43.964 59.95 38.4889 59.95 31.735C59.95 24.9811 54.4932 19.506 47.762 19.506C41.0307 19.506 35.574 24.9811 35.574 31.735C35.574 38.4889 41.0307 43.964 47.762 43.964Z" fill="#363636"/>
<path d="M31.562 33.171C32.3545 33.171 32.997 32.5286 32.997 31.736C32.997 30.9435 32.3545 30.301 31.562 30.301C30.7694 30.301 30.127 30.9435 30.127 31.736C30.127 32.5286 30.7694 33.171 31.562 33.171Z" fill="#363636"/>
<path d="M63.963 33.171C64.7555 33.171 65.398 32.5286 65.398 31.736C65.398 30.9435 64.7555 30.301 63.963 30.301C63.1704 30.301 62.528 30.9435 62.528 31.736C62.528 32.5286 63.1704 33.171 63.963 33.171Z" fill="#363636"/>
<path d="M39.109 19.429C39.9015 19.429 40.5439 18.7865 40.5439 17.994C40.5439 17.2015 39.9015 16.559 39.109 16.559C38.3164 16.559 37.674 17.2015 37.674 17.994C37.674 18.7865 38.3164 19.429 39.109 19.429Z" fill="#363636"/>
<path d="M56.415 46.912C57.2048 46.912 57.845 46.2691 57.845 45.476C57.845 44.6829 57.2048 44.04 56.415 44.04C55.6252 44.04 54.985 44.6829 54.985 45.476C54.985 46.2691 55.6252 46.912 56.415 46.912Z" fill="#363636"/>
<path d="M55.697 19C56.4895 19 57.132 18.3575 57.132 17.565C57.132 16.7725 56.4895 16.13 55.697 16.13C54.9044 16.13 54.262 16.7725 54.262 17.565C54.262 18.3575 54.9044 19 55.697 19Z" fill="#363636"/>
<path d="M39.8279 47.341C40.6205 47.341 41.2629 46.6985 41.2629 45.906C41.2629 45.1135 40.6205 44.471 39.8279 44.471C39.0354 44.471 38.3929 45.1135 38.3929 45.906C38.3929 46.6985 39.0354 47.341 39.8279 47.341Z" fill="#363636"/>
</symbol><symbol id="icon-cart" viewBox="0 0 10 10">
<path d="M9.86215 2.5217C9.79278 2.43991 9.69341 2.39316 9.58927 2.39316H7.65774V3.4188C7.65774 3.89008 7.25359 4.2735 6.75684 4.2735C6.26008 4.2735 5.85593 3.89008 5.85593 3.4188V2.39316H4.05413V3.4188C4.05413 3.89008 3.64999 4.2735 3.15323 4.2735C2.65648 4.2735 2.25233 3.89008 2.25233 3.4188V2.39316H0.32089C0.216656 2.39316 0.117286 2.43991 0.0479169 2.5217C-0.0215425 2.6035 -0.0544254 2.71256 -0.0425335 2.82145L0.605665 8.78461C0.617737 9.45692 1.14179 9.99999 1.78431 9.99999H8.12584C8.76828 9.99999 9.29233 9.45692 9.30449 8.78452L9.95269 2.82136C9.96449 2.71256 9.93161 2.6035 9.86215 2.5217Z"/>
<path d="M3.15333 3.76068C3.35207 3.76068 3.51369 3.60735 3.51369 3.4188V1.53846C3.51369 1.01051 4.07486 0.683761 4.59477 0.683761H5.49567C6.04288 0.683761 6.39657 1.01923 6.39657 1.53846V3.4188C6.39657 3.60735 6.55829 3.76068 6.75693 3.76068C6.95558 3.76068 7.11729 3.60735 7.11729 3.4188V1.53846C7.11729 0.647009 6.43531 0 5.49567 0H4.59477C3.60126 0 2.79297 0.690171 2.79297 1.53846V3.4188C2.79297 3.60735 2.95459 3.76068 3.15333 3.76068Z"/>
</symbol><symbol id="icon-chart" viewBox="0 0 10 10">
<path d="M0.916748 3.36667H2.66675V9.08334H0.916748V3.36667ZM4.18342 0.916672H5.81675V9.08334H4.18342V0.916672ZM7.45008 5.58334H9.08342V9.08334H7.45008V5.58334Z"/>
</symbol><symbol id="icon-facebook" viewBox="0 0 32 32">
<path d="M31.9973 16C31.9973 7.16267 24.8347 0 15.9987 0C7.16267 0 0 7.16267 0 16C0 23.984 5.85067 30.6027 13.4987 31.8027V20.624H9.43733V15.9987H13.4987V12.4747C13.4987 8.464 15.888 6.24933 19.5413 6.24933C21.292 6.24933 23.1227 6.56133 23.1227 6.56133V10.4987H21.1067C19.12 10.4987 18.5 11.732 18.5 12.9973V16H22.9373L22.228 20.6253H18.5V31.804C26.148 30.604 31.9987 23.9853 31.9987 16H31.9973Z" fill="white" fill-opacity="0.3"/>
</symbol><symbol id="icon-fitness-bracelet" viewBox="0 0 107 65">
<path d="M98.967 4.07397C99.719 5.51497 100.176 7.15398 100.176 8.89197V29.994C100.176 34.61 97.084 38.521 92.93 39.894C91.605 43.881 89.152 47.748 84.879 50.326C76.203 55.557 53.755 55.163 53.681 55.163C53.603 55.163 31.168 55.558 22.492 50.326C18.276 47.781 15.784 43.979 14.45 40.047C10.032 38.838 6.694 34.796 6.694 29.994V8.89297C6.694 7.20497 7.121 5.61097 7.833 4.19997C4.17 5.10897 0 6.91797 0 10.434C0 16.677 0 36.121 0 40.417C0 50.668 11.839 64.85 53.657 64.85C95.477 64.85 107.314 50.668 107.314 40.417C107.314 36.121 107.314 16.677 107.314 10.434C107.313 6.74997 102.738 4.93997 98.967 4.07397Z" fill="#363636"/>
<path d="M20.561 38.459H86.084C91.648 38.459 96.158 33.946 96.158 28.382V9.93499C96.158 4.37199 91.648 -0.140015 86.084 -0.140015H20.561C14.997 -0.140015 10.486 4.37099 10.486 9.93499V28.382C10.486 33.946 14.997 38.459 20.561 38.459ZM83.695 9.46799C84.562 9.46799 85.264 10.171 85.264 11.038C85.264 11.904 84.562 12.607 83.695 12.607C82.828 12.607 82.127 11.904 82.127 11.038C82.127 10.17 82.828 9.46799 83.695 9.46799ZM83.695 13.507C84.562 13.507 85.264 14.21 85.264 15.075C85.264 15.942 84.562 16.644 83.695 16.644C82.828 16.644 82.127 15.942 82.127 15.075C82.127 14.21 82.828 13.507 83.695 13.507ZM83.695 17.546C84.562 17.546 85.264 18.248 85.264 19.115C85.264 19.981 84.562 20.684 83.695 20.684C82.828 20.684 82.127 19.981 82.127 19.115C82.127 18.248 82.828 17.546 83.695 17.546ZM83.695 21.373C84.562 21.373 85.264 22.077 85.264 22.942C85.264 23.809 84.562 24.51 83.695 24.51C82.828 24.51 82.127 23.809 82.127 22.942C82.127 22.076 82.828 21.373 83.695 21.373ZM83.695 25.412C84.562 25.412 85.264 26.114 85.264 26.981C85.264 27.846 84.562 28.549 83.695 28.549C82.828 28.549 82.127 27.845 82.127 26.981C82.127 26.114 82.828 25.412 83.695 25.412ZM79.656 9.46799C80.523 9.46799 81.224 10.171 81.224 11.038C81.224 11.904 80.523 12.607 79.656 12.607C78.791 12.607 78.088 11.904 78.088 11.038C78.088 10.17 78.791 9.46799 79.656 9.46799ZM79.656 25.412C80.523 25.412 81.224 26.114 81.224 26.981C81.224 27.846 80.523 28.549 79.656 28.549C78.791 28.549 78.088 27.845 78.088 26.981C78.088 26.114 78.791 25.412 79.656 25.412ZM75.619 9.46799C76.484 9.46799 77.187 10.171 77.187 11.038C77.187 11.904 76.484 12.607 75.619 12.607C74.752 12.607 74.05 11.904 74.05 11.038C74.05 10.17 74.752 9.46799 75.619 9.46799ZM75.619 13.507C76.484 13.507 77.187 14.21 77.187 15.075C77.187 15.942 76.484 16.644 75.619 16.644C74.752 16.644 74.05 15.942 74.05 15.075C74.05 14.21 74.752 13.507 75.619 13.507ZM75.619 17.546C76.484 17.546 77.187 18.248 77.187 19.115C77.187 19.981 76.484 20.684 75.619 20.684C74.752 20.684 74.05 19.981 74.05 19.115C74.05 18.248 74.752 17.546 75.619 17.546ZM75.619 21.373C76.484 21.373 77.187 22.077 77.187 22.942C77.187 23.809 76.484 24.51 75.619 24.51C74.752 24.51 74.05 23.809 74.05 22.942C74.05 22.076 74.752 21.373 75.619 21.373ZM75.619 25.412C76.484 25.412 77.187 26.114 77.187 26.981C77.187 27.846 76.484 28.549 75.619 28.549C74.752 28.549 74.05 27.845 74.05 26.981C74.05 26.114 74.752 25.412 75.619 25.412ZM67.965 9.46799C68.832 9.46799 69.533 10.171 69.533 11.038C69.533 11.904 68.832 12.607 67.965 12.607C67.098 12.607 66.397 11.904 66.397 11.038C66.396 10.17 67.1 9.46799 67.965 9.46799ZM67.965 17.546C68.832 17.546 69.533 18.248 69.533 19.115C69.533 19.981 68.832 20.684 67.965 20.684C67.098 20.684 66.397 19.981 66.397 19.115C66.396 18.248 67.1 17.546 67.965 17.546ZM67.965 21.427C68.832 21.427 69.533 22.128 69.533 22.995C69.533 23.86 68.832 24.564 67.965 24.564C67.098 24.564 66.397 23.86 66.397 22.995C66.396 22.128 67.1 21.427 67.965 21.427ZM67.965 25.412C68.832 25.412 69.533 26.114 69.533 26.981C69.533 27.846 68.832 28.549 67.965 28.549C67.098 28.549 66.397 27.845 66.397 26.981C66.396 26.114 67.1 25.412 67.965 25.412ZM63.926 9.46799C64.793 9.46799 65.496 10.171 65.496 11.038C65.496 11.904 64.793 12.607 63.926 12.607C63.061 12.607 62.357 11.904 62.357 11.038C62.356 10.17 63.061 9.46799 63.926 9.46799ZM63.926 17.546C64.793 17.546 65.496 18.248 65.496 19.115C65.496 19.981 64.793 20.684 63.926 20.684C63.061 20.684 62.357 19.981 62.357 19.115C62.356 18.248 63.061 17.546 63.926 17.546ZM63.926 25.412C64.793 25.412 65.496 26.114 65.496 26.981C65.496 27.846 64.793 28.549 63.926 28.549C63.061 28.549 62.357 27.845 62.357 26.981C62.356 26.114 63.061 25.412 63.926 25.412ZM59.888 9.46799C60.753 9.46799 61.457 10.171 61.457 11.038C61.457 11.904 60.753 12.607 59.888 12.607C59.021 12.607 58.32 11.904 58.32 11.038C58.319 10.17 59.021 9.46799 59.888 9.46799ZM59.888 13.507C60.753 13.507 61.457 14.21 61.457 15.075C61.457 15.942 60.753 16.644 59.888 16.644C59.021 16.644 58.32 15.942 58.32 15.075C58.319 14.21 59.021 13.507 59.888 13.507ZM59.888 17.546C60.753 17.546 61.457 18.248 61.457 19.115C61.457 19.981 60.753 20.684 59.888 20.684C59.021 20.684 58.32 19.981 58.32 19.115C58.319 18.248 59.021 17.546 59.888 17.546ZM59.888 25.412C60.753 25.412 61.457 26.114 61.457 26.981C61.457 27.846 60.753 28.549 59.888 28.549C59.021 28.549 58.32 27.845 58.32 26.981C58.319 26.114 59.021 25.412 59.888 25.412ZM51.598 9.46799C52.465 9.46799 53.167 10.171 53.167 11.038C53.167 11.904 52.465 12.607 51.598 12.607C50.731 12.607 50.03 11.904 50.03 11.038C50.029 10.17 50.731 9.46799 51.598 9.46799ZM51.598 13.507C52.465 13.507 53.167 14.21 53.167 15.075C53.167 15.942 52.465 16.644 51.598 16.644C50.731 16.644 50.03 15.942 50.03 15.075C50.029 14.21 50.731 13.507 51.598 13.507ZM51.598 17.546C52.465 17.546 53.167 18.248 53.167 19.115C53.167 19.981 52.465 20.684 51.598 20.684C50.731 20.684 50.03 19.981 50.03 19.115C50.029 18.248 50.731 17.546 51.598 17.546ZM51.598 21.427C52.465 21.427 53.167 22.128 53.167 22.995C53.167 23.86 52.465 24.564 51.598 24.564C50.731 24.564 50.03 23.86 50.03 22.995C50.029 22.128 50.731 21.427 51.598 21.427ZM51.598 25.412C52.465 25.412 53.167 26.114 53.167 26.981C53.167 27.846 52.465 28.549 51.598 28.549C50.731 28.549 50.03 27.845 50.03 26.981C50.029 26.114 50.731 25.412 51.598 25.412ZM47.559 13.507C48.426 13.507 49.127 14.21 49.127 15.075C49.127 15.942 48.426 16.644 47.559 16.644C46.692 16.644 45.99 15.942 45.99 15.075C45.99 14.21 46.691 13.507 47.559 13.507ZM39.057 13.295C39.922 13.295 40.626 13.998 40.626 14.863C40.626 15.73 39.922 16.432 39.057 16.432C38.19 16.432 37.486 15.729 37.486 14.863C37.486 13.998 38.189 13.295 39.057 13.295ZM39.057 17.333C39.922 17.333 40.626 18.036 40.626 18.903C40.626 19.769 39.922 20.473 39.057 20.473C38.19 20.473 37.486 19.769 37.486 18.903C37.486 18.036 38.189 17.333 39.057 17.333ZM35.018 9.25499C35.883 9.25499 36.586 9.95799 36.586 10.825C36.586 11.691 35.882 12.393 35.018 12.393C34.151 12.393 33.449 11.69 33.449 10.825C33.449 9.95799 34.15 9.25499 35.018 9.25499ZM35.018 13.295C35.883 13.295 36.586 13.998 36.586 14.863C36.586 15.73 35.882 16.432 35.018 16.432C34.151 16.432 33.449 15.729 33.449 14.863C33.449 13.998 34.15 13.295 35.018 13.295ZM35.018 17.333C35.883 17.333 36.586 18.036 36.586 18.903C36.586 19.769 35.882 20.473 35.018 20.473C34.151 20.473 33.449 19.769 33.449 18.903C33.449 18.036 34.15 17.333 35.018 17.333ZM35.018 21.373C35.883 21.373 36.586 22.077 36.586 22.942C36.586 23.809 35.882 24.51 35.018 24.51C34.151 24.51 33.449 23.809 33.449 22.942C33.449 22.076 34.15 21.373 35.018 21.373ZM30.764 13.295C31.631 13.295 32.333 13.998 32.333 14.863C32.333 15.73 31.631 16.432 30.764 16.432C29.897 16.432 29.196 15.729 29.196 14.863C29.196 13.998 29.897 13.295 30.764 13.295ZM30.764 17.333C31.631 17.333 32.333 18.036 32.333 18.903C32.333 19.769 31.631 20.473 30.764 20.473C29.897 20.473 29.196 19.769 29.196 18.903C29.196 18.036 29.897 17.333 30.764 17.333ZM30.764 21.373C31.631 21.373 32.333 22.077 32.333 22.942C32.333 23.809 31.631 24.51 30.764 24.51C29.897 24.51 29.196 23.809 29.196 22.942C29.196 22.076 29.897 21.373 30.764 21.373ZM30.764 25.412C31.631 25.412 32.333 26.114 32.333 26.981C32.333 27.846 31.631 28.549 30.764 28.549C29.897 28.549 29.196 27.845 29.196 26.981C29.196 26.114 29.897 25.412 30.764 25.412ZM26.3 9.25499C27.167 9.25499 27.871 9.95799 27.871 10.825C27.871 11.691 27.167 12.393 26.3 12.393C25.435 12.393 24.731 11.69 24.731 10.825C24.731 9.95799 25.435 9.25499 26.3 9.25499ZM26.3 13.295C27.167 13.295 27.871 13.998 27.871 14.863C27.871 15.73 27.167 16.432 26.3 16.432C25.435 16.432 24.731 15.729 24.731 14.863C24.731 13.998 25.435 13.295 26.3 13.295ZM26.3 17.333C27.167 17.333 27.871 18.036 27.871 18.903C27.871 19.769 27.167 20.473 26.3 20.473C25.435 20.473 24.731 19.769 24.731 18.903C24.731 18.036 25.435 17.333 26.3 17.333ZM26.3 21.373C27.167 21.373 27.871 22.077 27.871 22.942C27.871 23.809 27.167 24.51 26.3 24.51C25.435 24.51 24.731 23.809 24.731 22.942C24.731 22.076 25.435 21.373 26.3 21.373ZM22.263 13.295C23.128 13.295 23.832 13.998 23.832 14.863C23.832 15.73 23.128 16.432 22.263 16.432C21.396 16.432 20.694 15.729 20.694 14.863C20.694 13.998 21.396 13.295 22.263 13.295ZM22.263 17.333C23.128 17.333 23.832 18.036 23.832 18.903C23.832 19.769 23.128 20.473 22.263 20.473C21.396 20.473 20.694 19.769 20.694 18.903C20.694 18.036 21.396 17.333 22.263 17.333Z" fill="#363636"/>
</symbol><symbol id="icon-htmlacademy" viewBox="0 0 27 34">
<path d="M13.62 0.0169551L13.472 0L0 1.40827V26.0042L13.473 34L26.903 26.0311L26.945 26.0062V1.40827L13.62 0.0169551ZM25.019 12.095L13.495 5.31992L13.494 5.21619L13.407 5.26606L13.319 5.21021V5.31892L1.925 12.086V3.13869L13.473 1.92989L25.02 3.13869V12.095H25.019ZM13.405 6.76908L24.923 13.4644L20.444 16.0974L13.351 11.8875L13.337 13.2988L19.241 16.8025L18.381 17.3082L13.351 14.3241L13.337 15.7353L17.164 18.0043L16.382 18.526L13.351 16.7437L13.337 18.1529L15.19 19.2411L13.39 20.3192L2.034 13.586L13.405 6.76908ZM1.925 15.0871L13.336 21.8601L13.352 22.9014L5.41 18.1859L5.395 19.5981L13.374 24.3805L13.392 25.4536L5.419 20.7261L5.406 22.1364L13.427 26.9457L13.473 26.9706L21.616 22.1115L21.605 16.9481L25.02 14.9175V24.9121L13.472 31.7659L1.925 24.9131V15.0871Z" fill="#F0C52E"/>
</symbol><symbol id="icon-instagram" viewBox="0 0 32 32">
<path d="M21 16C21 17.3261 20.4732 18.5979 19.5355 19.5355C18.5979 20.4732 17.3261 21 16 21C14.6739 21 13.4021 20.4732 12.4645 19.5355C11.5268 18.5979 11 17.3261 11 16C11 15.715 11.03 15.4367 11.0817 15.1667H9.33333V21.8283C9.33333 22.2917 9.70833 22.6667 10.1717 22.6667H21.83C22.0521 22.6662 22.2649 22.5777 22.4217 22.4205C22.5786 22.2634 22.6667 22.0504 22.6667 21.8283V15.1667H20.9183C20.97 15.4367 21 15.715 21 16ZM16 19.3333C16.4378 19.3332 16.8714 19.2469 17.2759 19.0792C17.6803 18.9116 18.0478 18.6659 18.3574 18.3562C18.6669 18.0465 18.9124 17.6789 19.0799 17.2743C19.2473 16.8698 19.3334 16.4362 19.3333 15.9983C19.3332 15.5605 19.2469 15.1269 19.0792 14.7225C18.9116 14.318 18.6659 13.9505 18.3562 13.641C18.0465 13.3314 17.6789 13.0859 17.2743 12.9185C16.8698 12.751 16.4362 12.6649 15.9983 12.665C15.1141 12.6652 14.2661 13.0167 13.641 13.6421C13.0158 14.2676 12.6648 15.1157 12.665 16C12.6652 16.8843 13.0167 17.7322 13.6421 18.3574C14.2676 18.9825 15.1157 19.3336 16 19.3333ZM20 12.5H21.9983C22.1311 12.5 22.2584 12.4474 22.3525 12.3537C22.4465 12.2599 22.4996 12.1328 22.5 12V10.0017C22.5 9.86862 22.4471 9.74102 22.3531 9.64693C22.259 9.55285 22.1314 9.5 21.9983 9.5H20C19.8669 9.5 19.7393 9.55285 19.6453 9.64693C19.5512 9.74102 19.4983 9.86862 19.4983 10.0017V12C19.5 12.275 19.725 12.5 20 12.5ZM16 0C11.7565 0 7.68687 1.68571 4.68629 4.68629C1.68571 7.68687 0 11.7565 0 16C0 20.2435 1.68571 24.3131 4.68629 27.3137C7.68687 30.3143 11.7565 32 16 32C18.1011 32 20.1817 31.5861 22.1229 30.7821C24.0641 29.978 25.828 28.7994 27.3137 27.3137C28.7994 25.828 29.978 24.0641 30.7821 22.1229C31.5861 20.1817 32 18.1011 32 16C32 13.8989 31.5861 11.8183 30.7821 9.87706C29.978 7.93586 28.7994 6.17203 27.3137 4.68629C25.828 3.20055 24.0641 2.022 22.1229 1.21793C20.1817 0.413852 18.1011 0 16 0ZM24.3333 22.4817C24.3333 23.5 23.5 24.3333 22.4817 24.3333H9.51833C8.5 24.3333 7.66667 23.5 7.66667 22.4817V9.51833C7.66667 8.5 8.5 7.66667 9.51833 7.66667H22.4817C23.5 7.66667 24.3333 8.5 24.3333 9.51833V22.4817Z" fill="white" fill-opacity="0.3"/>
</symbol><symbol id="icon-monopod" viewBox="0 0 86 117">
<path d="M82.821 4.01099H3.32997C1.56897 4.01099 0.141968 5.43799 0.141968 7.19899V53.612C0.141968 55.375 1.56897 56.801 3.32997 56.801H82.822C84.584 56.801 86.011 55.374 86.011 53.612V7.19899C86.011 5.43799 84.583 4.01099 82.821 4.01099ZM8.39197 37.236H8.16597C6.40397 37.236 4.97697 35.807 4.97697 34.047V26.764C4.97697 25.003 6.40397 23.576 8.16597 23.576H8.39197V37.236ZM69.623 52.408H13.341V8.40199H69.623V52.408ZM78.4 34.552C76.111 34.552 74.254 32.697 74.254 30.405C74.254 28.113 76.11 26.258 78.4 26.258C80.691 26.258 82.548 28.113 82.548 30.405C82.548 32.697 80.691 34.552 78.4 34.552Z" fill="#363636"/>
<path d="M54.6539 0H31.4969V2.758H54.6539V0Z" fill="#363636"/>
<path d="M46.6079 64.861V61.888H54.6539V59.13H31.4979V61.888H39.5429V97.134C37.4039 98.072 35.9079 100.206 35.9079 102.693V117H50.2429V102.693C50.2429 100.207 48.7479 98.072 46.6069 97.136V69.146H51.4029L56.4539 70.359V63.648L51.4029 64.861H46.6079Z" fill="#363636"/>
</symbol><symbol id="icon-quadrocopter" viewBox="0 0 132 69">
<path d="M12.0523 0.257888C6.50738 0.745188 1.83838 1.8507 0.575275 2.9303C-0.147425 3.5465 -0.147425 3.5465 0.342875 4.0865C0.987375 4.8062 4.05628 5.73148 7.59048 6.32278C11.5885 6.99078 20.1003 7.0162 21.3136 6.3741C22.5255 5.7061 22.9376 4.96045 22.9376 3.39265C22.9376 1.77395 22.3185 0.976664 20.7198 0.540164C19.274 0.154263 14.9415 -1.19209e-05 12.0523 0.257888Z" fill="#363636"/>
<path d="M25.7744 0.488258C25.645 0.771454 25.5161 2.59617 25.5161 4.60007C25.5161 8.66107 25.6714 8.37838 23.3242 8.53318L22.2934 8.61028L22.164 11.1547L22.0351 13.6986L20.8486 13.9818C18.2695 14.6498 16.8496 16.577 17.0571 19.2762C17.185 21.2034 18.0879 22.617 19.6357 23.3631C20.7446 23.8763 21.1054 23.9012 30.8818 23.9012C36.4267 23.9012 41.019 23.9798 41.0703 24.0819C41.1211 24.2103 39.9609 33.4891 38.4907 44.7206C37.0459 55.9511 35.8076 65.7177 35.7822 66.3866C35.7309 68.0038 36.6084 69.0077 38.1299 69.0077C39.3672 69.0077 40.1416 68.3661 40.4512 67.1063C40.5806 66.5926 41.9468 56.7733 43.4693 45.285C44.9913 33.8221 46.3321 24.4163 46.4097 24.4163C46.5127 24.4163 47.4927 25.8294 48.6021 27.552C51.542 32.178 51.001 31.8689 56.2374 31.8689H60.5958V34.6711V37.4987L55.463 37.5758C50.7428 37.6529 50.253 37.7028 49.5817 38.191C48.0089 39.3482 47.9567 39.606 47.9567 49.1676C47.9567 58.7018 47.9831 58.9596 49.4792 60.2174L50.3303 60.9127H66.0129H81.6955L82.5461 60.2174C84.0422 58.9596 84.0666 58.7018 84.0666 49.1676C84.0666 39.6061 84.0158 39.3483 82.4436 38.191C81.7727 37.7027 81.2825 37.6529 76.5618 37.5758L71.43 37.4987V34.6711V31.8689H75.7894C81.0238 31.8689 80.4828 32.178 83.4232 27.552C84.5336 25.8293 85.513 24.4163 85.6166 24.4163C85.6928 24.4163 87.0355 33.8221 88.5561 45.285C90.0786 56.7733 91.4457 66.5926 91.5747 67.1063C91.8843 68.3661 92.6567 69.0077 93.896 69.0077C95.4175 69.0077 96.2954 68.0038 96.2427 66.3866C96.2173 65.7177 94.979 55.9511 93.5337 44.7206C92.0649 33.4892 90.9028 24.2103 90.9556 24.0819C91.0064 23.9798 95.5972 23.9012 101.145 23.9012C110.92 23.9012 111.281 23.8763 112.389 23.3631C113.937 22.617 114.839 21.2034 114.968 19.2762C115.175 16.577 113.757 14.6497 111.177 13.9818L109.99 13.6986L109.863 11.1547L109.734 8.61028L108.702 8.53318C106.355 8.37838 106.508 8.66107 106.508 4.60007C106.508 2.59617 106.38 0.771454 106.251 0.488258C106.045 0.128357 105.708 -2.28882e-05 104.884 -2.28882e-05C104.265 -2.28882e-05 103.646 0.128365 103.464 0.308571C103.258 0.514168 103.155 1.7739 103.155 4.2407C103.155 6.708 103.052 7.96778 102.845 8.17278C102.665 8.35248 101.944 8.48088 101.196 8.48088C99.5698 8.48088 99.5444 8.53308 99.5444 11.5913V13.8784H66.0127H32.4805V11.5913C32.4805 8.53318 32.4556 8.48088 30.8306 8.48088C30.0821 8.48088 29.3604 8.35248 29.1802 8.17278C28.9727 7.96768 28.8701 6.708 28.8701 4.2407C28.8701 1.7739 28.7671 0.514069 28.5605 0.308571C28.3798 0.128365 27.7602 -2.28882e-05 27.1416 -2.28882e-05C26.3169 -2.28882e-05 25.9814 0.128456 25.7744 0.488258ZM68.6172 40.6084C71.5059 41.5068 74.0088 44.001 74.7832 46.7764C75.2217 48.3194 75.0928 50.9922 74.499 52.5596C73.8027 54.4346 71.8144 56.5694 69.9336 57.4951C68.6436 58.1367 68.1797 58.2139 66.0127 58.2139C63.8462 58.2139 63.3818 58.1368 62.0923 57.4951C60.208 56.5693 58.2232 54.4346 57.5264 52.5596C56.9336 50.9922 56.8037 48.3194 57.2427 46.7764C57.9907 44.0528 60.4922 41.5069 63.3042 40.6084C65.3164 39.9659 66.6045 39.9659 68.6172 40.6084Z" fill="#363636"/>
<path d="M63.7941 44.4375C61.7575 45.3633 60.2873 48.0869 60.7253 50.168C61.4992 53.8448 65.5485 55.7207 68.7209 53.8701C70.7063 52.7119 71.7121 50.3232 71.1721 48.0869C70.6037 45.6963 68.4377 43.9492 66.0129 43.9492C65.3674 43.9493 64.3874 44.1807 63.7941 44.4375Z" fill="#363636"/>
<path d="M36.0918 0.154258C32.1714 0.822258 31.5786 1.28516 31.5786 3.59806C31.5786 5.42276 32.0425 6.01407 33.8467 6.55367C35.3965 7.01607 41.0191 7.06784 44.3467 6.68204C51.2075 5.85974 55.6685 4.13764 54.0454 2.93004C52.7803 2.03014 49.1431 1.05355 44.9912 0.539951C42.5156 0.231951 36.9951 -4.19617e-05 36.0918 0.154258Z" fill="#363636"/>
<path d="M89.4844 0.257861C83.1651 0.848161 77.6201 2.33895 77.6201 3.44385C77.6201 5.16605 85.4609 6.91355 93.25 6.93945C99.0537 6.93945 100.446 6.29734 100.446 3.59814C100.446 1.77394 99.8272 0.97656 98.0733 0.51416C96.4238 0.10256 92.3984 -3.86238e-05 89.4844 0.257861Z" fill="#363636"/>
<path d="M112.777 0.283252C110.996 0.514252 109.758 1.05377 109.346 1.77397C108.959 2.54447 109.036 4.67775 109.5 5.34575C110.428 6.65675 111.152 6.81104 116.569 6.81104C120.23 6.81104 122.37 6.68215 124.435 6.32275C127.969 5.73145 131.038 4.80617 131.683 4.08647C132.173 3.54647 132.173 3.54647 131.45 2.93027C130.11 1.79937 125.492 0.745161 119.534 0.257861C116.053 -0.0253386 115.046 -0.0253482 112.777 0.283252Z" fill="#363636"/>
</symbol><symbol id="icon-smart-watche" viewBox="0 0 56 98">
<path d="M54.494 32.197H52.979V27.557C52.979 22.505 48.892 18.371 43.897 18.371H9.082C4.086 18.372 0 22.505 0 27.557V70.425C0 75.477 4.087 79.61 9.083 79.61H43.898C48.893 79.61 52.98 75.477 52.98 70.425V67.01H54.495C54.91 67.01 55.252 66.666 55.252 66.246V52.467C55.252 52.046 54.91 51.701 54.495 51.701H52.98V42.913H54.495C55.327 42.913 56.009 42.225 56.009 41.382V33.728C56.008 32.886 55.326 32.197 54.494 32.197ZM34.082 29.088C37.008 29.088 39.381 31.486 39.381 34.446C39.381 37.406 37.008 39.804 34.082 39.804C31.156 39.804 28.784 37.406 28.784 34.446C28.784 31.486 31.156 29.088 34.082 29.088ZM18.945 29.088C21.87 29.088 24.243 31.486 24.243 34.446C24.243 37.406 21.87 39.804 18.945 39.804C16.019 39.804 13.647 37.406 13.647 34.446C13.647 31.486 16.019 29.088 18.945 29.088ZM5.297 49.397C5.297 46.438 7.668 44.039 10.595 44.039C13.521 44.039 15.893 46.438 15.893 49.397C15.893 52.356 13.52 54.755 10.595 54.755C7.668 54.756 5.297 52.356 5.297 49.397ZM18.945 68.894C16.019 68.894 13.647 66.496 13.647 63.536C13.647 60.576 16.019 58.178 18.945 58.178C21.87 58.178 24.243 60.576 24.243 63.536C24.243 66.496 21.87 68.894 18.945 68.894ZM20.435 48.991C20.435 45.609 23.146 42.867 26.49 42.867C29.834 42.867 32.545 45.609 32.545 48.991C32.545 52.373 29.834 55.115 26.49 55.115C23.146 55.114 20.435 52.373 20.435 48.991ZM34.082 68.894C31.156 68.894 28.784 66.496 28.784 63.536C28.784 60.576 31.156 58.178 34.082 58.178C37.008 58.178 39.381 60.576 39.381 63.536C39.381 66.496 37.008 68.894 34.082 68.894ZM42.384 54.756C39.457 54.756 37.086 52.357 37.086 49.398C37.086 46.439 39.457 44.04 42.384 44.04C45.31 44.04 47.682 46.439 47.682 49.398C47.682 52.356 45.31 54.756 42.384 54.756Z" fill="#363636"/>
<path d="M9.646 15.31H43.333C44.176 15.31 44.765 14.629 44.639 13.796L43.023 3.028C43.023 3.028 43.023 3.027 43.021 3.026C42.771 1.362 41.189 0 39.506 0H13.474C11.788 0 10.206 1.362 9.957 3.028L8.342 13.795C8.217 14.628 8.803 15.31 9.646 15.31Z" fill="#363636"/>
<path d="M43.333 82.671H9.646C8.803 82.671 8.217 83.354 8.342 84.187L9.957 94.954C10.207 96.62 11.789 97.982 13.473 97.982H39.505C41.189 97.982 42.771 96.62 43.022 94.956C43.022 94.955 43.022 94.955 43.022 94.954L44.637 84.187C44.765 83.354 44.176 82.671 43.333 82.671Z" fill="#363636"/>
</symbol><symbol id="icon-twitter" viewBox="0 0 32 32">
<path d="M16 32C13.8333 32 11.7604 31.5781 9.78125 30.7344C7.80208 29.8906 6.09896 28.7552 4.67188 27.3281C3.24479 25.901 2.10938 24.1979 1.26562 22.2188C0.421875 20.2396 0 18.1667 0 16C0 13.8333 0.421875 11.7604 1.26562 9.78125C2.10938 7.80208 3.24479 6.09896 4.67188 4.67188C6.09896 3.24479 7.80208 2.10938 9.78125 1.26562C11.7604 0.421875 13.8333 0 16 0C18.1667 0 20.2396 0.421875 22.2188 1.26562C24.1979 2.10938 25.901 3.24479 27.3281 4.67188C28.7552 6.09896 29.8906 7.80208 30.7344 9.78125C31.5781 11.7604 32 13.8333 32 16C32 18.1667 31.5781 20.2396 30.7344 22.2188C29.8906 24.1979 28.7552 25.901 27.3281 27.3281C25.901 28.7552 24.1979 29.8906 22.2188 30.7344C20.2396 31.5781 18.1667 32 16 32ZM25.4062 8C25.2812 8.0625 25.0938 8.17708 24.8438 8.34375L24.2344 8.75L23.6562 9.0625L23 9.28125C22.2292 8.42708 21.2812 8 20.1562 8C17.7188 8 16.5 9.02083 16.5 11.0625V12.9062C13.1458 12.7396 10.5729 11.5104 8.78125 9.21875C8.26042 9.76042 8 10.3542 8 11C8 12.375 8.51042 13.4167 9.53125 14.125C9.40625 14.125 9.22917 14.1354 9 14.1562C8.77083 14.1771 8.58854 14.1771 8.45312 14.1562C8.31771 14.1354 8.16667 14.0833 8 14C8 14.9583 8.25521 15.7552 8.76562 16.3906C9.27604 17.026 9.97917 17.4375 10.875 17.625C10.6667 17.875 10.375 18 10 18C9.66667 18 9.375 17.9062 9.125 17.7188C9.125 18.5312 9.51562 19.1615 10.2969 19.6094C11.0781 20.0573 11.9583 20.2917 12.9375 20.3125C12.5625 20.875 12.0156 21.2969 11.2969 21.5781C10.5781 21.8594 9.8125 22 9 22C8.70833 22 8.30729 21.9271 7.79688 21.7812C7.28646 21.6354 7.02083 21.5625 7 21.5625C7.33333 22.2292 8.01562 22.8021 9.04688 23.2812C10.0781 23.7604 11.3854 24 12.9688 24C14.3646 24 15.6667 23.7552 16.875 23.2656C18.0833 22.776 19.1146 22.125 19.9688 21.3125C20.8229 20.5 21.5573 19.5729 22.1719 18.5312C22.7865 17.4896 23.2448 16.4115 23.5469 15.2969C23.849 14.1823 24 13.0833 24 12C24 11.9583 24.125 11.8698 24.375 11.7344C24.625 11.599 24.9167 11.4167 25.25 11.1875C25.5833 10.9583 25.8333 10.7188 26 10.4688C24.875 10.4688 24.125 10.4896 23.75 10.5312C24.4792 10.0938 25.0312 9.25 25.4062 8Z" fill="white" fill-opacity="0.3"/>
</symbol><symbol id="icon-user" viewBox="0 0 9 10">
<path d="M4.50008 0.333328C5.69716 0.333328 6.66675 1.3775 6.66675 2.66666C6.66675 3.95583 5.69716 5 4.50008 5C3.303 5 2.33341 3.95583 2.33341 2.66666C2.33341 1.3775 3.303 0.333328 4.50008 0.333328ZM4.50008 9.66666C4.50008 9.66666 8.83341 9.66666 8.83341 8.5C8.83341 7.1 6.72091 5.58333 4.50008 5.58333C2.27925 5.58333 0.166748 7.1 0.166748 8.5C0.166748 9.66666 4.50008 9.66666 4.50008 9.66666Z"/>
</symbol><symbol id="icon-virtual-reality" viewBox="0 0 97 55">
<path d="M84.1311 32.639V20.003C84.1311 18.694 85.1761 17.633 86.4661 17.633L94.7921 19.2141V11.02C94.7921 8.66505 93.0841 7.58905 90.5901 6.75505L67.4031 0.175049C69.0191 1.56605 69.2921 2.21505 69.2921 4.57105V49.78C69.2921 52.136 68.8421 53.8461 67.3251 54.9901L90.5901 47.925C92.9911 47.092 94.7921 43.709 94.7921 41.3531V33.44L86.4661 35.007C85.1761 35.009 84.1311 33.947 84.1311 32.639Z" fill="#363636"/>
<path d="M95.129 20.979L87.531 19.535C86.523 19.535 85.707 20.364 85.707 21.386V31.254C85.707 32.277 86.523 33.106 87.531 33.106L95.129 31.675C96.283 31.256 96.953 30.846 96.953 29.823V22.83C96.953 21.808 96.187 21.323 95.129 20.979Z" fill="#363636"/>
<path d="M67.17 4.48303C67.17 -0.596972 62.938 0.0240287 62.938 0.0240287C62.938 0.0240287 5.83205 4.73803 2.83805 5.14503C-0.155951 5.55203 0.00104837 9.53203 0.00104837 9.53203C0.00104837 9.53203 4.83679e-05 42.069 4.83679e-05 45.812C4.83679e-05 49.555 2.59905 49.565 2.59905 49.565L19.076 50.968L27.212 39.3C27.212 39.3 28.321 37.472 29.717 37.472C31.114 37.472 32.149 39.333 32.149 39.333L41.21 52.854C41.21 52.854 60.105 54.763 63.731 54.763C67.357 54.762 67.17 49.739 67.17 49.739C67.17 49.739 67.17 9.56303 67.17 4.48303ZM12.982 37.192C9.28405 37.192 6.28605 32.591 6.28605 26.917C6.28605 21.243 9.28405 16.642 12.982 16.642C16.68 16.642 19.678 21.243 19.678 26.917C19.678 32.591 16.68 37.192 12.982 37.192ZM49.14 38.618C44.4781 38.618 40.6991 33.379 40.6991 26.917C40.6991 20.454 44.479 15.215 49.14 15.215C53.802 15.215 57.5821 20.454 57.5821 26.917C57.5821 33.379 53.802 38.618 49.14 38.618Z" fill="#363636"/>
</symbol></svg>