<svg width="152" height="152" fill="none" xmlns="http://www.w3.org/2000/svg"><path fill="#F7E296" d="M0 0h152v152H0z"/><path fill-rule="evenodd" clip-rule="evenodd" d="M38 32.012v87.976h35.219a40.718 40.718 0 0016.572-3.086 40.906 40.906 0 0013.93-9.545 43.124 43.124 0 009.305-14.423A43.334 43.334 0 00115.985 76a43.334 43.334 0 00-2.959-16.934 43.122 43.122 0 00-9.305-14.423 40.91 40.91 0 00-13.93-9.544 40.703 40.703 0 00-16.572-3.087H38zM58 101V51h15.221c3.13-.125 6.251.767 9.164 1.925a22.493 22.493 0 017.753 5.158 24.659 24.659 0 015.03 8.299c1.113 3.075 1.989 6.342 1.832 9.61.157 3.268-.719 6.536-1.831 9.61a24.656 24.656 0 01-5.03 8.3 22.483 22.483 0 01-7.754 5.159c-2.913 1.157-6.034 2.065-9.164 1.939H58z" fill="#000"/></svg>