<svg width="13" height="13" viewBox="0 0 13 13" fill="none" xmlns="http://www.w3.org/2000/svg">
<path d="M5.66659 11C6.8499 10.9998 7.99912 10.6036 8.93125 9.87466L11.8619 12.8053L12.8046 11.8627L9.87392 8.932C10.6033 7.99977 10.9996 6.85029 10.9999 5.66666C10.9999 2.726 8.60725 0.333328 5.66659 0.333328C2.72592 0.333328 0.333252 2.726 0.333252 5.66666C0.333252 8.60733 2.72592 11 5.66659 11ZM5.66659 1.66666C7.87259 1.66666 9.66659 3.46066 9.66659 5.66666C9.66659 7.87266 7.87259 9.66666 5.66659 9.66666C3.46059 9.66666 1.66659 7.87266 1.66659 5.66666C1.66659 3.46066 3.46059 1.66666 5.66659 1.66666Z" fill="black"/>
</svg>
